<?xml version="1.0" encoding="UTF-8"?><!DOCTYPE svg PUBLIC "-//W3C//DTD SVG 1.1//EN" "http://www.w3.org/Graphics/SVG/1.1/DTD/svg11.dtd"><svg xmlns="http://www.w3.org/2000/svg"><defs/><symbol id="logo" viewBox="0 0 473.47 472.56"><title>logo</title><path d="M215.75,21.06c-1.31,0-2.58,0-3.81.13a43.54,43.54,0,0,0-5.5.72l-35,60.59a53.24,53.24,0,0,1,61.72,29.41l39.19-67.84c-4.55-5.77-14.7-13.07-27-17.53a90.2,90.2,0,0,0-29.65-5.47Zm85.72,17.53a37.37,37.37,0,0,0-4.47.19l-44.53,77.16a53,53,0,0,1,15.22-2.25,53.5,53.5,0,0,1,47.72,29.53l43.16-74.78c-4.12-6.92-13.92-15.66-25.78-21.53-10.44-5.16-22.2-8.14-31.31-8.31ZM139,67.94c-10.9.22-21.35,4.08-32.5,12.22C96,87.77,85.3,99.3,74.19,114.5L122,130.78l34.66-60a53.49,53.49,0,0,0-15.5-2.81c-.73,0-1.46,0-2.19,0ZM370.31,85.5,325.5,163.16a52.35,52.35,0,0,1,16.94-2.84,53,53,0,0,1,46.91,28.53l37-64c-3.56-8.5-12.9-19.25-24.19-27-10.9-7.51-23.45-12-31.81-12.31Zm-185.53,14a34.75,34.75,0,1,0,34.69,34.75A34.6,34.6,0,0,0,184.78,99.5ZM58.53,128.94C48.27,179.43,49.27,231,64.6,275l.56,1.59.19-.22,7.13,10.22c.87,1.25,1.81,2.52,2.78,3.78-.84-41.21,10.51-89.24,37.44-143L58.53,128.94Zm209.16,3.44a34.74,34.74,0,1,0,34.72,34.72,34.55,34.55,0,0,0-34.72-34.72ZM437,145.06l-41.78,72.38c0,.61-.09,1.24-.16,1.84a49.49,49.49,0,0,1,13.44-1.87,50.13,50.13,0,0,1,46.72,32.44l36.53-63.25c-3.43-8.86-12.62-20.09-23.78-28.31-10.62-7.82-22.84-12.6-31-13.22Zm-303.72,3.22c-33.36,63.76-43.35,118-37.9,160.6.13,1,.29,2.06.44,3.09,20,17.92,47.18,35.92,76.25,51.72,40.17,21.83,84.1,39.88,118.06,50.13,42-15.25,84.3-46.5,119.16-96.47l-.78,0a50.09,50.09,0,0,1-49.94-50c0-1.24.07-2.47.16-3.69a52.55,52.55,0,0,1-16.25,2.59,53.14,53.14,0,0,1-52.91-50.5,52.87,52.87,0,0,1-21.84,4.72,53.55,53.55,0,0,1-52.25-42.6,53,53,0,0,1-30.66,9.75,53.62,53.62,0,0,1-51.53-39.41ZM342.44,179a34.31,34.31,0,1,0,34.25,34.31A34.16,34.16,0,0,0,342.44,179Zm66,57.13a31.28,31.28,0,1,0,31.25,31.28,31.13,31.13,0,0,0-31.25-31.28ZM64.91,307.25c-7.42,9.67-14.18,19.17-20.34,28.47,3.22,9.16,10.11,19.44,20.66,30,13.9,13.88,33.81,28,57.81,41.06,41.59,22.59,95.45,41.86,152,52.53,3.07-8.94,5.83-18.35,8.22-28.25-35.37-10.75-79.21-28.67-120.19-50.94-39.39-21.41-75.67-46.16-98.19-72.84ZM32.72,354.56q-6.67,11.27-12.13,22.09c1.47,9.07,8,20.19,19.59,31.72C52.44,420.52,70,433,91.28,444.44c41.08,22.16,95.78,40.72,152.22,49.19h17.37c2.59-5.32,5.1-10.84,7.47-16.56-57.28-11.12-111.46-30.63-154.25-53.87C88.94,409.52,67.72,394.57,52,378.91a119.77,119.77,0,0,1-19.31-24.34ZM18.25,412.09v34.09a30.47,30.47,0,0,0,6.88,9c5.26,5,13.18,10.43,22.84,15.53,18.88,10,44.43,18.67,70.62,22.94H161a456.76,456.76,0,0,1-78.59-32.75C60,448.78,41.07,435.57,27,421.65q-4.76-4.72-8.78-9.56Zm0,61.78v19.75H52.59c-4.66-2-9.13-4.18-13.34-6.41a138.81,138.81,0,0,1-21-13.35Z" transform="translate(-18.25 -21.06)"/></symbol></svg>